<svg width="24" height="29" viewBox="0 0 24 29" fill="none" xmlns="http://www.w3.org/2000/svg">
<path d="M11.7442 0C10.0778 0 8.71864 1.28352 8.71864 2.85704V4.20745C4.98428 5.38351 2.29923 8.67776 2.29923 12.5696V19.9768L0.297696 23.9148C0.259112 23.9909 0.241579 24.075 0.246729 24.1593C0.25188 24.2436 0.279546 24.3252 0.327151 24.3967C0.374756 24.4682 0.440748 24.5271 0.518979 24.5679C0.597209 24.6088 0.68513 24.6303 0.774548 24.6305H7.08431V24.649C7.08431 27.0546 9.17653 29 11.7442 29C14.3119 29 16.401 27.0546 16.401 24.649V24.6305H22.7108C22.8006 24.631 22.889 24.61 22.9678 24.5694C23.0466 24.5288 23.1131 24.4699 23.1612 24.3984C23.2093 24.3268 23.2373 24.2449 23.2427 24.1603C23.248 24.0757 23.2305 23.9912 23.1918 23.9148L21.1892 19.9768V12.5696C21.1892 8.67668 18.5027 5.38169 14.7667 4.20647V2.85704C14.7667 1.28352 13.4107 0 11.7442 0ZM11.6935 1.00085C11.7106 1.00045 11.7271 1.00085 11.7442 1.00085C12.8419 1.00085 13.7064 1.81985 13.7064 2.85704V3.93697C13.0736 3.81246 12.417 3.74657 11.7442 3.74657C11.0696 3.74657 10.4122 3.81278 9.77785 3.93795V2.85704C9.77785 1.83606 10.6202 1.0259 11.6935 1.00085ZM11.7442 4.74644C16.4028 4.74644 20.13 8.23076 20.13 12.5696V20.0872C20.1293 20.1624 20.1466 20.2369 20.1807 20.3049L21.8698 23.6306H1.61447L3.30362 20.3049C3.33909 20.2372 3.35783 20.1627 3.35844 20.0872V12.5696C3.35844 8.23076 7.08568 4.74644 11.7442 4.74644ZM8.14352 24.6305H15.3408V24.649C15.3408 26.5118 13.7498 28.0001 11.7442 28.0001C9.7386 28.0001 8.14352 26.5118 8.14352 24.649V24.6305Z" fill="#26211F"/>
</svg>
