<svg width="30" height="30" viewBox="0 0 30 30" fill="none" xmlns="http://www.w3.org/2000/svg">
<path d="M20.625 12.1875C20.625 11.6697 21.0447 11.25 21.5625 11.25H23.4375C23.9553 11.25 24.375 11.6697 24.375 12.1875V14.0625C24.375 14.5803 23.9553 15 23.4375 15H21.5625C21.0447 15 20.625 14.5803 20.625 14.0625V12.1875Z" fill="#004680"/>
<path d="M6.5625 0C7.08027 0 7.5 0.419733 7.5 0.9375V1.875H22.5V0.9375C22.5 0.419733 22.9197 0 23.4375 0C23.9553 0 24.375 0.419733 24.375 0.9375V1.875H26.25C28.3211 1.875 30 3.55393 30 5.625V26.25C30 28.3211 28.3211 30 26.25 30H3.75C1.67893 30 0 28.3211 0 26.25V5.625C0 3.55393 1.67893 1.875 3.75 1.875H5.625V0.9375C5.625 0.419733 6.04473 0 6.5625 0ZM1.875 7.5V26.25C1.875 27.2855 2.71447 28.125 3.75 28.125H26.25C27.2855 28.125 28.125 27.2855 28.125 26.25V7.5H1.875Z" fill="#004680"/>
</svg>
