<svg width="51" height="51" viewBox="0 0 51 51" fill="none" xmlns="http://www.w3.org/2000/svg">
<circle cx="25.5" cy="25.5" r="25" fill="#EEF7FF" stroke="#E9E9E9"/>
<path d="M25.7705 34.1015C25.6859 34.1297 25.6294 34.158 25.5447 34.158C25.46 34.158 25.4036 34.158 25.3189 34.1015L14 29.6981V37.9686C14 38.4484 14.3952 38.8436 14.875 38.8436H36.2426C36.7225 38.8436 37.1177 38.4484 37.1177 37.9686V29.6981L25.7705 34.1015ZM14.2258 28.4844L16.371 29.3312V26.565L14.2258 28.4844ZM28.9037 21.1172C28.565 21.1172 28.3109 20.8632 28.3109 20.5245V16.0082H25.6859C25.6859 16.1493 25.7141 16.2905 25.7141 16.4316C25.7141 19.5365 23.1737 22.0769 20.0687 22.0769C19.1655 22.0769 18.3187 21.8511 17.5566 21.4842V29.811L25.5165 32.916L33.3917 29.8393V21.1172H28.9037ZM30.3715 28.8513H20.6333C20.2946 28.8513 20.0405 28.5691 20.0405 28.2586C20.0405 27.9199 20.2946 27.6658 20.6333 27.6658H30.3715C30.7102 27.6658 30.9642 27.9481 30.9642 28.2586C30.9925 28.5691 30.7102 28.8513 30.3715 28.8513ZM30.3715 25.323H20.6333C20.2946 25.323 20.0405 25.0407 20.0405 24.7302C20.0405 24.3915 20.2946 24.1375 20.6333 24.1375H30.3715C30.7102 24.1375 30.9642 24.3915 30.9642 24.7302C30.9925 25.069 30.7102 25.323 30.3715 25.323ZM20.097 12C17.6412 12 15.6654 13.9759 15.6654 16.4316C15.6654 18.8873 17.6412 20.8632 20.097 20.8632C22.5245 20.8632 24.5286 18.8873 24.5286 16.4316C24.5286 13.9759 22.5245 12 20.097 12ZM22.1293 15.8671L19.9841 18.0123C19.8712 18.1252 19.7018 18.1816 19.5607 18.1816C19.3913 18.1816 19.2502 18.1252 19.1373 18.0123L17.9517 16.8268C17.7259 16.601 17.7259 16.2058 17.9517 15.98C18.1776 15.7542 18.5727 15.7542 18.7985 15.98L19.5324 16.7421L21.2543 15.0203C21.4801 14.7944 21.8752 14.7944 22.1011 15.0203C22.3551 15.2461 22.3551 15.613 22.1293 15.8671ZM29.5247 16.1211V19.9035H33.3353L29.5247 16.1211ZM34.6337 26.5085V29.3594L36.8636 28.4844L34.6337 26.5085Z" fill="#004680"/>
</svg>
