<svg width="70" height="70" viewBox="0 0 70 70" fill="none" xmlns="http://www.w3.org/2000/svg">
<g clip-path="url(#clip0_29_124)">
<path fill-rule="evenodd" clip-rule="evenodd" d="M1.55324 68.4465C-0.517747 66.3757 -0.517747 63.0178 1.55324 60.947L60.947 1.55324C63.0178 -0.517747 66.3757 -0.517747 68.4465 1.55324C70.5178 3.62418 70.5178 6.98189 68.4465 9.05282L9.05282 68.4465C6.98189 70.5178 3.62418 70.5178 1.55324 68.4465Z" fill="black"/>
<path fill-rule="evenodd" clip-rule="evenodd" d="M1.55324 1.55324C3.62418 -0.517747 6.98189 -0.517747 9.05282 1.55324L68.4465 60.947C70.5178 63.0178 70.5178 66.3757 68.4465 68.4465C66.3757 70.5178 63.0178 70.5178 60.947 68.4465L1.55324 9.05282C-0.517747 6.98189 -0.517747 3.62418 1.55324 1.55324Z" fill="black"/>
</g>
<defs>
<clipPath id="clip0_29_124">
<rect width="70" height="70" fill="white"/>
</clipPath>
</defs>
</svg>
