<svg width="51" height="51" viewBox="0 0 51 51" fill="none" xmlns="http://www.w3.org/2000/svg">
<circle cx="25.5" cy="25.5" r="25" fill="#EEF7FF" stroke="#E9E9E9"/>
<path fill-rule="evenodd" clip-rule="evenodd" d="M24.5559 32.7172C23.8802 32.8555 23.1807 32.9269 22.464 32.9269C16.6889 32.9269 12 28.2383 12 22.464C12 16.6889 16.6886 12 22.464 12C28.238 12 32.9269 16.6886 32.9269 22.464C32.9269 23.4802 32.782 24.464 32.5107 25.3938H27.9051C26.0564 25.3938 24.5558 26.8943 24.5558 28.742L24.5559 32.7172ZM17.8597 24.1376H22.8823C23.344 24.1376 23.7191 23.7635 23.7191 23.3009V16.6047C23.7191 16.142 23.344 15.7668 22.8823 15.7668C22.4207 15.7668 22.0456 16.142 22.0456 16.6047V22.4642H17.8596C17.398 22.4642 17.0229 22.8394 17.0229 23.301C17.0229 23.7626 17.3981 24.1376 17.8597 24.1376Z" fill="#004680"/>
<path fill-rule="evenodd" clip-rule="evenodd" d="M35.4379 26.231H36.2747C37.6606 26.231 38.7861 27.3564 38.7861 28.7423V36.2765C38.7861 37.6614 37.6606 38.7868 36.2747 38.7868H27.9049C26.519 38.7868 25.3936 37.6614 25.3936 36.2765V28.7423C25.3936 27.3564 26.519 26.231 27.9049 26.231H28.7417V29.5792C28.7417 30.9651 29.8671 32.0906 31.253 32.0906H32.9266C34.3125 32.0906 35.438 30.9651 35.438 29.5792L35.4379 26.231Z" fill="#004680"/>
<path fill-rule="evenodd" clip-rule="evenodd" d="M30.415 26.231H33.7644V29.5792C33.7644 30.0419 33.3892 30.4159 32.9265 30.4159H31.253C30.7903 30.4159 30.4152 30.0419 30.4152 29.5792L30.415 26.231Z" fill="#004680"/>
</svg>
