<svg width="51" height="51" viewBox="0 0 51 51" fill="none" xmlns="http://www.w3.org/2000/svg">
<circle cx="25.5" cy="25.5" r="25" fill="#EEF7FF" stroke="#E9E9E9"/>
<path fill-rule="evenodd" clip-rule="evenodd" d="M29.0446 18.6064L25.9294 15.3724V18.6064H29.0446ZM22.5216 22.5806H21.8824V23.6529C21.8824 23.9431 22.2236 24.0988 22.4278 23.8868C22.4858 23.8266 22.5217 23.7436 22.5217 23.6529L22.5216 22.5806ZM23.0303 23.4323C23.9068 23.396 24.7254 23.2929 25.5798 23.121V25.4872C25.5798 25.6963 25.4308 25.8796 25.234 25.8796H19.169C18.9722 25.8796 18.8232 25.6963 18.8232 25.4872V23.122C19.6776 23.2977 20.4953 23.4103 21.3727 23.4476V23.6529C21.3727 23.8897 21.4656 24.1045 21.6155 24.2602C22.1389 24.8035 23.0292 24.411 23.0292 23.6529V23.4323H23.0303ZM21.6276 22.0525C21.4869 22.0525 21.3738 22.1709 21.3738 22.3161V22.9205C20.3942 22.8766 19.4708 22.7324 18.5116 22.5166V20.3682L18.5162 20.3491H25.8872L25.8918 20.3682V22.5166C25.4071 22.6255 24.9113 22.7162 24.4349 22.7811C23.9732 22.8441 23.5096 22.8852 23.0295 22.9062V22.317C23.0295 22.1709 22.9154 22.0535 22.7756 22.0535H21.6278L21.6276 22.0525ZM23.4267 19.822V18.9015C23.4267 18.7945 23.332 18.7162 23.2271 18.7162H21.176C21.0712 18.7162 20.9765 18.7945 20.9765 18.9015V19.822H23.4267ZM20.4689 19.822V18.9015C20.4689 18.5043 20.7935 18.1882 21.1771 18.1882H23.2281C23.6117 18.1882 23.9363 18.5052 23.9363 18.9015V19.822H25.889C26.175 19.822 26.4022 20.0731 26.4022 20.3691V22.7286C26.4022 22.8622 26.3075 22.9721 26.1843 22.9902C26.153 22.9978 26.1217 23.0045 26.0904 23.0122V25.4881C26.0904 25.9847 25.7142 26.4086 25.236 26.4086H19.171C18.6937 26.4086 18.3166 25.9847 18.3166 25.4881V23.0122C18.2789 23.0036 18.2412 22.995 18.2025 22.9854C18.0848 22.9577 18.0048 22.8489 18.0048 22.7286H18.0039V20.3691C18.0039 20.0731 18.231 19.822 18.5171 19.822H20.4697L20.4689 19.822ZM20.0954 28.6782C19.9547 28.6782 19.8416 28.5598 19.8416 28.4147C19.8416 28.2686 19.9557 28.1511 20.0954 28.1511H24.308C24.4488 28.1511 24.5619 28.2695 24.5619 28.4147C24.5619 28.5608 24.4478 28.6782 24.308 28.6782H20.0954ZM17.0658 30.6872C16.9251 30.6872 16.8119 30.5688 16.8119 30.4237C16.8119 30.2776 16.926 30.1602 17.0658 30.1602H27.3386C27.4794 30.1602 27.5925 30.2786 27.5925 30.4237C27.5925 30.5698 27.4784 30.6872 27.3386 30.6872L17.0658 30.6882V30.6872ZM17.0658 32.6963C16.9251 32.6963 16.8119 32.5779 16.8119 32.4327C16.8119 32.2867 16.926 32.1692 17.0658 32.1692H27.3386C27.4794 32.1692 27.5925 32.2876 27.5925 32.4327C27.5925 32.5788 27.4784 32.6963 27.3386 32.6963L17.0658 32.6972V32.6963ZM17.0658 34.7053C16.9251 34.7053 16.8119 34.5869 16.8119 34.4418C16.8119 34.2957 16.926 34.1783 17.0658 34.1783H27.3386C27.4794 34.1783 27.5925 34.2967 27.5925 34.4418C27.5925 34.5879 27.4784 34.7053 27.3386 34.7053H17.0658ZM33.9986 22.3132L35.5935 23.269L35.919 22.6837C36.24 22.106 35.553 21.2667 34.7979 21.407C34.5744 21.4491 34.4263 21.557 34.3168 21.7422L33.9995 22.3132H33.9986ZM31.5842 28.0596C31.6541 27.9336 31.8086 27.8906 31.93 27.9622C32.0514 28.0348 32.0928 28.1952 32.0239 28.3213L31.3699 29.5034C31.3 29.6294 31.1455 29.6724 31.0241 29.6008C30.9027 29.5282 30.8613 29.3678 30.9303 29.2417L31.5842 28.0596ZM33.695 24.2451C33.7649 24.119 33.9195 24.076 34.0409 24.1477C34.1623 24.2202 34.2037 24.3806 34.1347 24.5067L32.9445 26.657C32.8746 26.7831 32.7201 26.8261 32.5987 26.7544C32.4773 26.6819 32.4359 26.5215 32.5049 26.3954L33.695 24.2451ZM30.2248 32.8035C30.0197 32.1523 29.3759 31.7656 28.7302 31.9079L28.6769 33.7957L30.2248 32.8035ZM28.9721 31.3522L33.7449 22.7699L35.3397 23.7258L30.567 32.307C30.246 31.7093 29.6316 31.3426 28.9721 31.3512V31.3522ZM28.229 31.716L28.1563 34.2682C28.1508 34.4754 28.3706 34.6119 28.5472 34.4964L29.4044 33.9474V37L15 36.999V15H25.4209V18.871C25.4209 19.0171 25.535 19.1346 25.6748 19.1346H29.4035V29.5225L28.2713 31.5582C28.2419 31.6041 28.2262 31.6585 28.2281 31.7148L28.229 31.716Z" fill="#004680"/>
</svg>
