<svg width="71" height="36" viewBox="0 0 71 36" fill="none" xmlns="http://www.w3.org/2000/svg">
<path d="M69.9569 1.14565C69.4882 0.672993 68.8514 0.407371 68.1874 0.407371C67.5234 0.407371 66.8866 0.672993 66.4179 1.14565L37.3279 30.2437C36.8592 30.7124 36.2224 30.978 35.5584 30.978C34.8944 30.978 34.2576 30.7124 33.7889 30.2437L4.23791 0.704651C3.25744 -0.244569 1.69881 -0.232849 0.734012 0.728088C-0.230828 1.69293 -0.246458 3.25149 0.698856 4.23589L30.2499 33.7829C33.1835 36.7048 37.9257 36.7048 40.8589 33.7829L69.9609 4.68089L69.9569 4.6848C70.4296 4.21605 70.6913 3.57929 70.6913 2.91529C70.6913 2.25123 70.4296 1.61435 69.9569 1.14565Z" fill="#26211F"/>
</svg>
