<svg width="51" height="51" viewBox="0 0 51 51" fill="none" xmlns="http://www.w3.org/2000/svg">
<circle cx="25.5" cy="25.5" r="25" fill="#EEF7FF" stroke="#E9E9E9"/>
<path d="M21.0498 33.0233C20.9248 33.0233 20.8227 32.917 20.8227 32.7867C20.8227 32.6565 20.9248 32.5502 21.0498 32.5502H30.9501C31.0751 32.5502 31.1772 32.6565 31.1772 32.7867C31.1772 32.917 31.0751 33.0233 30.9501 33.0233H21.0498ZM21.0498 30.2078C20.9248 30.2078 20.8227 30.1016 20.8227 29.9713C20.8227 29.841 20.9248 29.7347 21.0498 29.7347H30.9501C31.0751 29.7347 31.1772 29.841 31.1772 29.9713C31.1772 30.1016 31.0751 30.2078 30.9501 30.2078H21.0498ZM21.0498 27.3923C20.9248 27.3923 20.8227 27.2861 20.8227 27.1558C20.8227 27.0255 20.9248 26.9192 21.0498 26.9192H30.9501C31.0751 26.9192 31.1772 27.0255 31.1772 27.1558C31.1772 27.2861 31.0751 27.3923 30.9501 27.3923H21.0498ZM27.5249 19.4706C27.5249 19.6009 27.4229 19.7071 27.2978 19.7071C27.1727 19.7071 27.0707 19.6009 27.0707 19.4706C27.0707 19.162 26.951 18.8829 26.7585 18.6824C26.5651 18.48 26.2972 18.3562 26.0009 18.3562C25.7046 18.3562 25.4367 18.4809 25.2442 18.6815C25.0499 18.8829 24.931 19.162 24.931 19.4706C24.931 19.7792 25.0508 20.0583 25.2433 20.2588C25.4367 20.4612 25.7046 20.585 26.0009 20.585C26.4205 20.585 26.8019 20.7624 27.0778 21.0498C27.3546 21.339 27.5258 21.7354 27.5258 22.1725C27.5258 22.6096 27.3555 23.0059 27.0796 23.2943C26.8525 23.5299 26.558 23.6916 26.2289 23.7433V24.4964C26.2289 24.6267 26.1269 24.733 26.0018 24.733C25.8767 24.733 25.7747 24.6267 25.7747 24.4964V23.7433C25.4456 23.6916 25.1502 23.5299 24.9248 23.2961C24.648 23.0069 24.4768 22.6105 24.4768 22.1734C24.4768 22.0431 24.5788 21.9368 24.7039 21.9368C24.829 21.9368 24.931 22.0431 24.931 22.1734C24.931 22.482 25.0508 22.7611 25.2433 22.9616C25.4367 23.164 25.7046 23.2878 26.0009 23.2878C26.2972 23.2878 26.5651 23.163 26.7576 22.9625C26.9519 22.7611 27.0707 22.482 27.0707 22.1734C27.0707 21.8648 26.951 21.5857 26.7585 21.3852C26.5651 21.1828 26.2972 21.059 26.0009 21.059C25.5813 21.059 25.2007 20.8816 24.9248 20.5942C24.6471 20.305 24.4768 19.9077 24.4768 19.4706C24.4768 19.0335 24.6471 18.6371 24.923 18.3497C25.1501 18.1141 25.4455 17.9515 25.7746 17.9006V17.1475C25.7746 17.0173 25.8767 16.911 26.0017 16.911C26.1268 16.911 26.2288 17.0173 26.2288 17.1475V17.9006C26.558 17.9524 26.8525 18.1132 27.0778 18.3479C27.3555 18.6371 27.5258 19.0344 27.5258 19.4715L27.5249 19.4706ZM25.2912 35.9019L25.5325 36.1533C25.6611 36.2873 25.8314 36.3547 26.0009 36.3547C26.1703 36.3547 26.3398 36.2873 26.4693 36.1533L26.7106 35.9019C26.9288 35.6755 27.2145 35.5628 27.4992 35.5628C27.784 35.5628 28.0696 35.6765 28.287 35.9019L28.8246 36.4601C28.9532 36.5941 29.1226 36.6615 29.2921 36.6615C29.4615 36.6615 29.631 36.5941 29.7596 36.4601L30.2954 35.9019C30.5128 35.6755 30.7984 35.5628 31.0841 35.5628C31.3688 35.5628 31.6554 35.6765 31.8727 35.9019L32.617 36.6772C32.7776 36.8371 32.9443 36.9359 33.1014 36.9775C33.2504 37.0163 33.3932 37.0043 33.5174 36.9461C33.6443 36.887 33.756 36.7761 33.8394 36.6217C33.9397 36.4351 34 36.1837 34 35.8751V16.5237C34 16.1375 33.7835 15.7781 33.4695 15.5054C33.112 15.195 32.6347 15 32.2001 15H19.7999C19.3652 15 18.888 15.195 18.5305 15.5054C18.2173 15.778 18 16.1375 18 16.5237V35.8751C18 36.1838 18.0603 36.436 18.1606 36.6217C18.244 36.777 18.3557 36.887 18.4826 36.9461C18.6068 37.0043 18.7496 37.0163 18.8986 36.9775C19.0565 36.9368 19.2224 36.838 19.3821 36.679L20.1264 35.9029C20.3446 35.6755 20.6303 35.5619 20.9159 35.5619C21.2016 35.5619 21.4872 35.6746 21.7046 35.901L22.2404 36.4591C22.369 36.5931 22.5385 36.6606 22.7079 36.6606C22.8774 36.6606 23.0468 36.5931 23.1754 36.4591L23.7121 35.901C23.9295 35.6746 24.216 35.561 24.5017 35.561C24.7873 35.561 25.073 35.6746 25.2903 35.901L25.2912 35.9019Z" fill="#004680"/>
</svg>
