<svg width="51" height="51" viewBox="0 0 51 51" fill="none" xmlns="http://www.w3.org/2000/svg">
<circle cx="25.5" cy="25.5" r="25" fill="#EEF7FF" stroke="#E9E9E9"/>
<path d="M17.731 26.1123V24.4435C17.731 24.2051 17.9427 23.9932 18.1808 23.9932H19.8478C20.086 23.9932 20.2977 24.2051 20.2977 24.4435V26.1123C20.2977 26.3508 20.086 26.5627 19.8478 26.5627H18.1808C17.9427 26.5627 17.731 26.3508 17.731 26.1123ZM21.7001 26.5627H23.3671C23.6053 26.5627 23.817 26.3508 23.817 26.1123V24.4435C23.817 24.2051 23.6053 23.9932 23.3671 23.9932H21.7001C21.462 23.9932 21.2503 24.2051 21.2503 24.4435V26.1123C21.2503 26.3508 21.4355 26.5627 21.7001 26.5627ZM25.1929 26.5627H26.86C27.0981 26.5627 27.3098 26.3508 27.3098 26.1123V24.4435C27.3098 24.2051 27.0981 23.9932 26.86 23.9932H25.1929C24.9548 23.9932 24.7431 24.2051 24.7431 24.4435V26.1123C24.7431 26.3508 24.9548 26.5627 25.1929 26.5627ZM21.7001 29.9533H23.3671C23.6053 29.9533 23.817 29.7414 23.817 29.503V27.8342C23.817 27.5958 23.6053 27.3838 23.3671 27.3838H21.7001C21.462 27.3838 21.2503 27.5958 21.2503 27.8342V29.503C21.2503 29.7679 21.4355 29.9533 21.7001 29.9533ZM25.1929 29.9533H26.86C27.0981 29.9533 27.3098 29.7414 27.3098 29.503V27.8342C27.3098 27.5958 27.0981 27.3838 26.86 27.3838H25.1929C24.9548 27.3838 24.7431 27.5958 24.7431 27.8342V29.503C24.7431 29.7679 24.9548 29.9533 25.1929 29.9533ZM28.6858 29.9533H30.3528C30.591 29.9533 30.8026 29.7414 30.8026 29.503V27.8342C30.8026 27.5958 30.591 27.3838 30.3528 27.3838H28.6858C28.4476 27.3838 28.2359 27.5958 28.2359 27.8342V29.503C28.2359 29.7679 28.4476 29.9533 28.6858 29.9533ZM18.1808 29.9533H19.8478C20.086 29.9533 20.2977 29.7414 20.2977 29.503V27.8342C20.2977 27.5958 20.086 27.3838 19.8478 27.3838H18.1808C17.9427 27.3838 17.731 27.5958 17.731 27.8342V29.503C17.731 29.7679 17.9427 29.9533 18.1808 29.9533ZM25.1929 33.3705H26.86C27.0981 33.3705 27.3098 33.1586 27.3098 32.9202V31.2513C27.3098 31.0129 27.0981 30.801 26.86 30.801H25.1929C24.9548 30.801 24.7431 31.0129 24.7431 31.2513V32.9202C24.7431 33.1851 24.9548 33.3705 25.1929 33.3705ZM21.7001 33.3705H23.3671C23.6053 33.3705 23.817 33.1586 23.817 32.9202V31.2513C23.817 31.0129 23.6053 30.801 23.3671 30.801H21.7001C21.462 30.801 21.2503 31.0129 21.2503 31.2513V32.9202C21.2503 33.1851 21.4355 33.3705 21.7001 33.3705ZM28.6858 26.5627H30.3528C30.591 26.5627 30.8026 26.3508 30.8026 26.1123V24.4435C30.8026 24.2051 30.591 23.9932 30.3528 23.9932H28.6858C28.4476 23.9932 28.2359 24.2051 28.2359 24.4435V26.1123C28.2359 26.3508 28.4476 26.5627 28.6858 26.5627ZM32.2051 29.9533H33.8721C34.1103 29.9533 34.3219 29.7414 34.3219 29.503V27.8342C34.3219 27.5958 34.1103 27.3838 33.8721 27.3838H32.2051C31.9669 27.3838 31.7552 27.5958 31.7552 27.8342V29.503C31.7552 29.7679 31.9405 29.9533 32.2051 29.9533ZM28.6858 33.3705H30.3528C30.591 33.3705 30.8026 33.1586 30.8026 32.9202V31.2513C30.8026 31.0129 30.591 30.801 30.3528 30.801H28.6858C28.4476 30.801 28.2359 31.0129 28.2359 31.2513V32.9202C28.2359 33.1851 28.4476 33.3705 28.6858 33.3705ZM14 34.3771V18.192C14 16.735 15.1907 15.5695 16.6196 15.5695H19.5568V13.9536C19.5568 13.4238 19.9802 13 20.5094 13H22.0441C22.5733 13 22.9967 13.4238 22.9967 13.9536V15.5695H29.0298V13.9536C29.0298 13.4238 29.4531 13 29.9824 13H31.4906C32.0198 13 32.4432 13.4238 32.4432 13.9536V15.5695H35.3804C36.8357 15.5695 38 16.7615 38 18.192V34.3771C38 35.834 36.8093 36.9996 35.3804 36.9996H16.6461C15.1907 37.0261 14 35.834 14 34.3771ZM16.0375 34.3771C16.0375 34.695 16.3021 34.9864 16.6461 34.9864H35.3804C35.6979 34.9864 35.989 34.7215 35.989 34.3771V22.4038H16.0375V34.3771Z" fill="#004680"/>
</svg>
