<svg width="51" height="51" viewBox="0 0 51 51" fill="none" xmlns="http://www.w3.org/2000/svg">
<circle cx="25.5" cy="25.5" r="25" fill="#EEF7FF" stroke="#E9E9E9"/>
<path d="M32.5 14.5H27.5V12H22.5V14.5H17.5C16.125 14.5 15 15.625 15 17V37C15 38.375 16.125 39.5 17.5 39.5H32.5C33.875 39.5 35 38.375 35 37V17C35 15.625 33.875 14.5 32.5 14.5ZM31.25 35.75H18.75V34.5H31.25V35.75ZM31.25 32H18.75V30.5C18.75 29 20.75 27.875 23.375 27.5C23.5 27.25 23.625 27 23.625 26.75C23.625 26.5 23.5 26.25 23.5 26.125C22.625 25.5 22 24.375 22 23.125C21.875 21.125 23.25 19.5 25 19.5C26.75 19.5 28.125 21.125 28.125 23C28.125 24.25 27.5 25.375 26.625 26C26.5 26.25 26.5 26.375 26.5 26.625C26.5 26.875 26.625 27.125 26.75 27.375C29.375 27.75 31.375 29 31.375 30.375V32H31.25Z" fill="#004680"/>
</svg>
