<svg width="51" height="51" viewBox="0 0 51 51" fill="none" xmlns="http://www.w3.org/2000/svg">
<circle cx="25.5" cy="25.5" r="25" fill="#EEF7FF" stroke="#E9E9E9"/>
<path d="M14 17.8569V32.9051H37.4083V17.8569H14ZM16.0802 19.5272C16.1361 19.5259 16.1916 19.5358 16.2436 19.5564C16.2956 19.5769 16.3429 19.6076 16.3828 19.6467C16.4226 19.6858 16.4543 19.7326 16.4758 19.7841C16.4973 19.8357 16.5083 19.8911 16.508 19.947C16.5081 20.0019 16.4973 20.0562 16.4763 20.107C16.4553 20.1577 16.4245 20.2039 16.3857 20.2427C16.3469 20.2816 16.3008 20.3124 16.2501 20.3334C16.1993 20.3544 16.1449 20.3652 16.09 20.3652C16.0351 20.3652 15.9807 20.3544 15.93 20.3334C15.8793 20.3124 15.8332 20.2816 15.7944 20.2427C15.7555 20.2039 15.7248 20.1577 15.7038 20.107C15.6828 20.0562 15.672 20.0019 15.672 19.947C15.6716 19.8375 15.7141 19.7321 15.7904 19.6537C15.8667 19.5752 15.9708 19.5298 16.0802 19.5272ZM35.3085 19.5272C35.3644 19.5259 35.4199 19.5358 35.4719 19.5564C35.5238 19.5769 35.5712 19.6076 35.611 19.6467C35.6509 19.6858 35.6826 19.7326 35.7041 19.7841C35.7256 19.8357 35.7365 19.8911 35.7363 19.947C35.7363 20.0019 35.7256 20.0562 35.7046 20.107C35.6836 20.1577 35.6528 20.2039 35.614 20.2427C35.5752 20.2816 35.5291 20.3124 35.4783 20.3334C35.4276 20.3544 35.3732 20.3652 35.3183 20.3652C35.2634 20.3652 35.209 20.3544 35.1583 20.3334C35.1075 20.3124 35.0614 20.2816 35.0226 20.2427C34.9838 20.2039 34.953 20.1577 34.932 20.107C34.911 20.0562 34.9003 20.0019 34.9003 19.947C34.8998 19.8375 34.9423 19.7321 35.0187 19.6537C35.095 19.5752 35.1991 19.5298 35.3085 19.5272ZM19.8521 20.3649H29.8842V21.2009H19.8521V20.3649ZM16.0802 21.6173C16.1361 21.616 16.1916 21.6259 16.2436 21.6464C16.2956 21.667 16.3429 21.6977 16.3828 21.7368C16.4226 21.7759 16.4543 21.8226 16.4758 21.8742C16.4973 21.9258 16.5083 21.9811 16.508 22.037C16.5081 22.0919 16.4973 22.1463 16.4763 22.197C16.4553 22.2478 16.4245 22.2939 16.3857 22.3327C16.3469 22.3715 16.3008 22.4024 16.2501 22.4234C16.1993 22.4445 16.1449 22.4553 16.09 22.4553C16.0351 22.4553 15.9807 22.4445 15.93 22.4234C15.8793 22.4024 15.8332 22.3715 15.7944 22.3327C15.7555 22.2939 15.7248 22.2478 15.7038 22.197C15.6828 22.1463 15.672 22.0919 15.672 22.037C15.6716 21.9275 15.7141 21.8222 15.7904 21.7437C15.8667 21.6653 15.9708 21.6199 16.0802 21.6173ZM35.3085 21.701C35.3644 21.6997 35.4199 21.7096 35.4719 21.7301C35.5238 21.7507 35.5712 21.7815 35.611 21.8206C35.6509 21.8597 35.6826 21.9064 35.7041 21.958C35.7256 22.0095 35.7366 22.0649 35.7363 22.1208C35.7363 22.1757 35.7256 22.2301 35.7046 22.2808C35.6836 22.3316 35.6528 22.3777 35.614 22.4165C35.5752 22.4553 35.5291 22.4862 35.4783 22.5072C35.4276 22.5283 35.3732 22.5391 35.3183 22.5391C35.2634 22.5391 35.209 22.5283 35.1583 22.5072C35.1075 22.4862 35.0614 22.4553 35.0226 22.4165C34.9838 22.3777 34.953 22.3316 34.932 22.2808C34.911 22.2301 34.9003 22.1757 34.9003 22.1208C34.8998 22.0113 34.9423 21.906 35.0186 21.8275C35.095 21.749 35.1991 21.7036 35.3085 21.701ZM18.1801 22.8732H23.1961V23.7091H18.1801V22.8732ZM16.0802 23.7075C16.1361 23.7062 16.1916 23.7161 16.2436 23.7366C16.2956 23.7571 16.3429 23.7878 16.3828 23.8269C16.4227 23.8661 16.4543 23.9128 16.4758 23.9644C16.4973 24.0159 16.5083 24.0713 16.508 24.1272C16.5081 24.1821 16.4973 24.2364 16.4763 24.2872C16.4553 24.3379 16.4245 24.3841 16.3857 24.423C16.3469 24.4618 16.3008 24.4926 16.2501 24.5136C16.1993 24.5346 16.1449 24.5454 16.09 24.5454C16.0351 24.5454 15.9807 24.5346 15.93 24.5136C15.8793 24.4926 15.8332 24.4618 15.7944 24.423C15.7555 24.3841 15.7248 24.3379 15.7038 24.2872C15.6828 24.2364 15.672 24.1821 15.672 24.1272C15.6715 24.0177 15.714 23.9124 15.7904 23.8339C15.8667 23.7554 15.9708 23.71 16.0802 23.7075ZM35.3085 23.8755C35.3644 23.8742 35.4199 23.8841 35.4718 23.9047C35.5238 23.9252 35.5711 23.9559 35.611 23.995C35.6509 24.0341 35.6825 24.0809 35.704 24.1324C35.7256 24.184 35.7365 24.2393 35.7363 24.2952C35.7363 24.3501 35.7256 24.4044 35.7046 24.4552C35.6836 24.5059 35.6528 24.5521 35.614 24.5909C35.5752 24.6298 35.5291 24.6606 35.4783 24.6816C35.4276 24.7026 35.3732 24.7134 35.3183 24.7134C35.2634 24.7134 35.209 24.7026 35.1583 24.6816C35.1075 24.6606 35.0614 24.6298 35.0226 24.5909C34.9838 24.5521 34.953 24.5059 34.932 24.4552C34.911 24.4044 34.9003 24.3501 34.9003 24.2952C34.8999 24.1857 34.9424 24.0804 35.0187 24.002C35.095 23.9235 35.1991 23.8781 35.3085 23.8755ZM31.6901 24.963C32.1061 24.9602 32.5179 25.0461 32.8981 25.2149C33.2782 25.3838 33.618 25.6317 33.8948 25.9423C34.1715 26.2528 34.3789 26.6188 34.503 27.0158C34.6272 27.4128 34.6652 27.8318 34.6147 28.2447C34.5641 28.6576 34.4261 29.0549 34.2098 29.4103C33.9936 29.7656 33.704 30.0707 33.3605 30.3053C33.017 30.5399 32.6274 30.6986 32.2178 30.7708C31.8081 30.8429 31.3877 30.8269 30.9848 30.7237L29.4336 31.2756C29.3924 31.2905 29.3476 31.2921 29.3054 31.2802C29.2633 31.2683 29.2259 31.2434 29.1987 31.2091C29.1714 31.1748 29.1556 31.1328 29.1535 31.0891C29.1515 31.0453 29.1632 31.002 29.187 30.9653L29.6115 30.3056L28.3167 30.7236C28.2746 30.7371 28.2293 30.7369 28.1873 30.723C28.1453 30.7092 28.1088 30.6823 28.0831 30.6464C28.0573 30.6104 28.0436 30.5673 28.0439 30.523C28.0442 30.4788 28.0586 30.4359 28.0848 30.4004L28.3526 30.0362L25.3596 31.7033C25.2632 31.7528 25.1513 31.7629 25.0476 31.7315C24.9439 31.7 24.8564 31.6296 24.8036 31.5349C24.7509 31.4402 24.737 31.3287 24.7649 31.224C24.7928 31.1192 24.8602 31.0294 24.9531 30.9735L28.9192 28.7626C28.7827 28.3262 28.7504 27.8639 28.8248 27.4128C28.8992 26.9617 29.0783 26.5343 29.3477 26.1649C29.6171 25.7955 29.9693 25.4943 30.3761 25.2856C30.7829 25.0769 31.2329 24.9664 31.6901 24.963ZM18.1801 25.3811H24.0321V26.2171H18.1801V25.3811ZM16.0802 25.7973C16.1361 25.796 16.1916 25.8059 16.2436 25.8265C16.2956 25.847 16.3429 25.8778 16.3828 25.9169C16.4226 25.956 16.4543 26.0028 16.4758 26.0543C16.4973 26.1059 16.5083 26.1612 16.508 26.2171C16.5081 26.272 16.4973 26.3263 16.4763 26.3771C16.4553 26.4278 16.4245 26.474 16.3857 26.5128C16.3469 26.5517 16.3008 26.5824 16.2501 26.6035C16.1993 26.6245 16.1449 26.6354 16.09 26.6354C16.0351 26.6354 15.9807 26.6245 15.93 26.6035C15.8793 26.5824 15.8332 26.5517 15.7944 26.5128C15.7555 26.474 15.7248 26.4278 15.7038 26.3771C15.6828 26.3263 15.672 26.272 15.672 26.2171C15.6716 26.1076 15.7141 26.0023 15.7904 25.9238C15.8667 25.8454 15.9708 25.7999 16.0802 25.7973ZM35.3085 26.0489C35.3644 26.0476 35.4199 26.0575 35.4719 26.078C35.5238 26.0986 35.5712 26.1293 35.611 26.1684C35.6509 26.2075 35.6826 26.2542 35.7041 26.3058C35.7256 26.3574 35.7365 26.4127 35.7363 26.4686C35.7363 26.5235 35.7256 26.5779 35.7046 26.6286C35.6836 26.6794 35.6528 26.7255 35.614 26.7643C35.5752 26.8032 35.5291 26.834 35.4783 26.855C35.4276 26.8761 35.3732 26.8869 35.3183 26.8869C35.2634 26.8869 35.209 26.8761 35.1583 26.855C35.1075 26.834 35.0614 26.8032 35.0226 26.7643C34.9838 26.7255 34.953 26.6794 34.932 26.6286C34.911 26.5779 34.9003 26.5235 34.9003 26.4686C34.8998 26.3591 34.9423 26.2538 35.0187 26.1753C35.095 26.0969 35.1991 26.0515 35.3085 26.0489ZM16.0802 27.8874C16.1361 27.8861 16.1916 27.896 16.2436 27.9165C16.2956 27.937 16.3429 27.9678 16.3828 28.007C16.4226 28.0461 16.4543 28.0928 16.4758 28.1444C16.4973 28.1959 16.5083 28.2513 16.508 28.3071C16.5081 28.3621 16.4973 28.4165 16.4763 28.4672C16.4553 28.518 16.4245 28.564 16.3857 28.6029C16.3469 28.6417 16.3008 28.6725 16.2501 28.6935C16.1993 28.7146 16.1449 28.7254 16.09 28.7254C16.0351 28.7254 15.9807 28.7146 15.93 28.6935C15.8793 28.6725 15.8332 28.6417 15.7944 28.6029C15.7555 28.564 15.7248 28.518 15.7038 28.4672C15.6828 28.4165 15.672 28.3621 15.672 28.3071C15.6716 28.1977 15.7141 28.0924 15.7904 28.0139C15.8667 27.9354 15.9708 27.89 16.0802 27.8874ZM18.1801 27.8874H23.1961V28.7234H18.1801V27.8874ZM35.3085 28.2206C35.3644 28.2192 35.4199 28.2291 35.4719 28.2496C35.5238 28.2701 35.5712 28.3009 35.611 28.34C35.6509 28.3792 35.6826 28.4259 35.7041 28.4774C35.7256 28.529 35.7365 28.5843 35.7363 28.6402C35.7363 28.6951 35.7256 28.7495 35.7046 28.8003C35.6836 28.851 35.6528 28.8971 35.614 28.9359C35.5752 28.9748 35.5291 29.0056 35.4783 29.0266C35.4276 29.0476 35.3732 29.0585 35.3183 29.0585C35.2634 29.0585 35.209 29.0476 35.1583 29.0266C35.1075 29.0056 35.0614 28.9748 35.0226 28.9359C34.9838 28.8971 34.953 28.851 34.932 28.8003C34.911 28.7495 34.9003 28.6951 34.9003 28.6402C34.8998 28.5307 34.9423 28.4254 35.0187 28.347C35.095 28.2685 35.1991 28.2231 35.3085 28.2206ZM16.0802 29.9758C16.1361 29.9745 16.1916 29.9844 16.2436 30.0049C16.2956 30.0255 16.3429 30.0562 16.3828 30.0953C16.4226 30.1344 16.4543 30.1811 16.4758 30.2327C16.4973 30.2843 16.5083 30.3396 16.508 30.3955C16.5081 30.4504 16.4973 30.5048 16.4763 30.5555C16.4553 30.6063 16.4245 30.6524 16.3857 30.6912C16.3469 30.7301 16.3008 30.7609 16.2501 30.782C16.1993 30.803 16.1449 30.8138 16.09 30.8138C16.0351 30.8138 15.9807 30.803 15.93 30.782C15.8793 30.7609 15.8332 30.7301 15.7944 30.6912C15.7555 30.6524 15.7248 30.6063 15.7038 30.5555C15.6828 30.5048 15.672 30.4504 15.672 30.3955C15.6716 30.286 15.7141 30.1807 15.7904 30.1022C15.8667 30.0238 15.9708 29.9784 16.0802 29.9758ZM35.3085 30.3938C35.3644 30.3925 35.4199 30.4024 35.4719 30.423C35.5238 30.4435 35.5712 30.4742 35.611 30.5133C35.6509 30.5524 35.6826 30.5992 35.7041 30.6507C35.7256 30.7023 35.7365 30.7576 35.7363 30.8135C35.7363 30.8684 35.7256 30.9228 35.7046 30.9736C35.6836 31.0243 35.6528 31.0704 35.614 31.1092C35.5752 31.1481 35.5291 31.1789 35.4783 31.2C35.4276 31.221 35.3732 31.2318 35.3183 31.2318C35.2634 31.2318 35.209 31.221 35.1583 31.2C35.1075 31.1789 35.0614 31.1481 35.0226 31.1092C34.9838 31.0704 34.953 31.0243 34.932 30.9736C34.911 30.9228 34.9003 30.8684 34.9003 30.8135C34.8998 30.704 34.9423 30.5987 35.0187 30.5203C35.095 30.4418 35.1991 30.3964 35.3085 30.3938Z" fill="#004680"/>
<path d="M31.0228 28.9746L29.9118 29.3321L30.7451 28.2028C30.7735 28.1644 30.7879 28.1174 30.7859 28.0697C30.7839 28.0219 30.7656 27.9763 30.734 27.9405C30.7024 27.9046 30.6595 27.8805 30.6124 27.8725C30.5653 27.8644 30.5168 27.8728 30.4751 27.8961L29.672 28.3438C29.5915 27.9821 29.6086 27.6056 29.7215 27.2527C29.8345 26.8999 30.0392 26.5833 30.3147 26.3356C30.5902 26.0879 30.9267 25.9179 31.2895 25.843C31.6524 25.7681 32.0286 25.791 32.3797 25.9093C32.7308 26.0277 33.0442 26.2372 33.2876 26.5165C33.5311 26.7958 33.6959 27.1349 33.7652 27.4988C33.8345 27.8628 33.8059 28.2386 33.6821 28.5879C33.5584 28.9371 33.344 29.2471 33.061 29.4863C33.0151 29.3956 32.9377 29.3247 32.8433 29.287C32.7489 29.2492 32.6439 29.2471 32.5481 29.2812L30.8855 29.8722L31.2625 29.2866C31.2858 29.2504 31.2974 29.2078 31.2957 29.1647C31.2939 29.1216 31.2788 29.0802 31.2526 29.046C31.2263 29.0118 31.1902 28.9866 31.149 28.9738C31.1079 28.9609 31.0638 28.9614 31.0228 28.9746Z" fill="#004680"/>
</svg>
