<svg width="51" height="51" viewBox="0 0 51 51" fill="none" xmlns="http://www.w3.org/2000/svg">
<circle cx="25.5" cy="25.5" r="25" fill="#EEF7FF" stroke="#E9E9E9"/>
<path d="M34.6277 25.3167C35.9982 25.5184 37.2245 26.1642 38.1588 27.1042L38.2088 27.1594C39.3159 28.3011 40 29.863 40 31.5834C40 34.5967 37.1648 37.7745 35.4057 40.144L35.3545 40.2077C35.1614 40.4502 34.9267 40.6411 34.6597 40.7755C34.3665 40.9232 34.046 41 33.7135 41C33.3798 41 33.0604 40.9232 32.766 40.7755C32.4764 40.6302 32.225 40.4177 32.0224 40.1452C31.8281 39.8847 31.5921 39.5738 31.3467 39.2521H16.2007C15.6954 39.2521 15.2855 38.8391 15.2855 38.3301V24.5185H12.9127C12.6732 24.5161 12.4337 24.4213 12.2549 24.234C11.9057 23.8678 11.9164 23.2856 12.2799 22.9338L24.3238 11.2566C24.6753 10.9157 25.2343 10.9133 25.5894 11.2566L37.5878 22.8896C37.788 23.0588 37.9155 23.3133 37.9155 23.5967C37.9155 24.1057 37.5055 24.5187 37.0002 24.5187H34.6275V25.3182L34.6277 25.3167ZM32.7972 24.5171H17.1164V37.4068H29.9599C28.5835 35.5076 27.4251 33.5544 27.4251 31.5832C27.4251 29.8341 28.1294 28.2506 29.2663 27.1054L29.3211 27.055C30.2483 26.1426 31.4544 25.5148 32.7976 25.3167L32.7972 24.5171ZM33.4813 39.0421C33.5122 39.0841 33.5468 39.1153 33.5814 39.1321C33.6112 39.1477 33.6564 39.1549 33.7136 39.1549C33.7708 39.1549 33.8149 39.1465 33.8447 39.1321C33.8698 39.1201 33.8948 39.0997 33.9186 39.0721L33.9401 39.0421C35.369 37.1141 38.1695 33.9435 38.1695 31.5832C38.1695 30.3635 37.688 29.2578 36.9086 28.45L36.8645 28.408C36.0589 27.5965 34.9434 27.0935 33.7136 27.0935C32.5028 27.0935 31.4064 27.5785 30.6033 28.3636L30.5616 28.408C29.7559 29.2195 29.2566 30.3432 29.2566 31.5821C29.2566 33.8882 31.9297 36.952 33.4814 39.0409L33.4813 39.0421ZM33.7136 28.4608C34.5693 28.4608 35.3452 28.8101 35.9053 29.3756C36.4654 29.9398 36.8134 30.7213 36.8134 31.5833C36.8134 32.4452 36.4666 33.2268 35.9053 33.791C35.3452 34.3552 34.5693 34.7058 33.7136 34.7058C32.858 34.7058 32.0821 34.3564 31.522 33.791C30.9619 33.2268 30.6139 32.4452 30.6139 31.5833C30.6139 30.7213 30.9607 29.9398 31.522 29.3756C32.0821 28.8113 32.858 28.4608 33.7136 28.4608Z" fill="#004680"/>
</svg>
