<svg width="51" height="51" viewBox="0 0 51 51" fill="none" xmlns="http://www.w3.org/2000/svg">
<circle cx="25.5" cy="25.5" r="25" fill="#EEF7FF" stroke="#E9E9E9"/>
<path d="M15.7921 16.9041L16.2893 17.2483C16.3275 17.2101 17.819 14.9537 17.7043 15.0685L17.2071 14.7243C16.8629 14.4948 16.3657 14.5713 16.1363 14.9537L15.6009 15.8333C15.3714 16.1775 15.4479 16.6747 15.7921 16.9041Z" fill="#004680"/>
<path d="M25.9266 20.461C21.1844 17.3251 19.8841 16.4455 19.8077 16.4072C19.9224 16.4837 23.3643 18.7401 18.3927 15.4512L17.8955 16.216L25.1235 20.9582L25.9266 20.461Z" fill="#004680"/>
<path d="M30.5156 14.4951V16.522H32.5043L30.5156 14.4951Z" fill="#004680"/>
<path d="M26.921 20.1931L26.9592 20.2313C26.9975 20.2696 27.1504 20.652 28.2212 23.0613C28.4124 23.2908 28.2212 23.6732 27.9153 23.6732L24.8176 23.635C24.7411 23.635 24.7029 23.635 24.5881 23.5585L20.7256 21.0344V23.2525C21.8729 23.329 22.7907 24.3233 22.7907 25.4706C22.7907 26.159 22.4465 26.8091 21.9494 27.1916C23.2496 27.6887 24.2057 28.836 24.3969 30.2128H33.0016V17.2866H30.0569C29.8274 17.2866 29.6745 17.1336 29.6745 16.9042V13.9595H20.7256V16.1011C27.0739 20.3078 26.8827 20.1549 26.921 20.1931ZM31.1277 27.727H25.7354C25.5442 27.727 25.353 27.574 25.353 27.3446C25.353 27.1533 25.5442 26.9621 25.7354 26.9621H31.1659C31.3954 26.9621 31.5484 27.1533 31.5484 27.3446C31.5101 27.5358 31.3572 27.727 31.1277 27.727ZM31.1277 24.2469H29.9039C29.7127 24.2469 29.5215 24.0939 29.5215 23.8644C29.5215 23.6732 29.7127 23.482 29.9039 23.482H31.1277C31.3572 23.482 31.5101 23.6732 31.5101 23.8644C31.5101 24.0556 31.3572 24.2469 31.1277 24.2469ZM29.1773 20.0019H31.1659C31.3954 20.0019 31.5484 20.1931 31.5484 20.3843C31.5484 20.6138 31.3954 20.7667 31.1659 20.7667H29.1773C28.9861 20.7667 28.7949 20.6138 28.7949 20.3843C28.7949 20.1549 28.9478 20.0019 29.1773 20.0019ZM24.7029 16.9042C24.7029 16.6747 24.8941 16.5218 25.0853 16.5218H27.8388C28.03 16.5218 28.2212 16.6747 28.2212 16.9042C28.2212 17.1336 28.03 17.2866 27.8388 17.2866H25.0853C24.8941 17.2866 24.7029 17.0954 24.7029 16.9042Z" fill="#004680"/>
<path d="M24.6646 21.6461L17.4366 16.8657L16.9395 17.6306L24.5116 22.6022C24.5116 22.5639 24.6646 21.6844 24.6646 21.6461Z" fill="#004680"/>
<path d="M17.4365 30.9012C17.4365 31.5131 18.8515 31.972 20.5725 31.972C22.3316 31.972 23.7466 31.4749 23.7466 30.9012C23.7466 29.1803 22.3316 27.7271 20.5725 27.7271C18.8515 27.7271 17.4365 29.142 17.4365 30.9012Z" fill="#004680"/>
<path d="M25.4285 21.6848L25.2373 22.8703L27.3024 22.9086L26.4611 21.0347L25.4285 21.6848Z" fill="#004680"/>
<path d="M20.5724 26.9623C21.3755 26.9623 22.0639 26.3122 22.0639 25.5091C22.0639 24.706 21.4137 24.0176 20.5724 24.0176C19.7693 24.0176 19.1191 24.6677 19.1191 25.5091C19.1191 26.3122 19.7693 26.9623 20.5724 26.9623Z" fill="#004680"/>
<path d="M37.0931 34.037H36.4813V19.5812C36.4813 19.3517 36.3283 19.1987 36.0988 19.1987H33.8042V19.9636H35.7164V34.037H14.7592V19.9636H19.1189L17.9716 19.1987H14.3768C14.1473 19.1987 13.9943 19.3517 13.9943 19.5812V34.037H13.3824C13.1912 34.037 13 34.2283 13 34.4195V35.1079C13 36.4081 14.0708 37.4407 15.3711 37.4407H35.1427C36.443 37.4407 37.4756 36.3699 37.4756 35.1079V34.4195C37.4756 34.19 37.3226 34.037 37.0931 34.037Z" fill="#004680"/>
</svg>
