<svg width="51" height="51" viewBox="0 0 51 51" fill="none" xmlns="http://www.w3.org/2000/svg">
<circle cx="25.5" cy="25.5" r="25" fill="#EEF7FF" stroke="#E9E9E9"/>
<path d="M37.5559 33.5621L37.4841 19.6405C37.4841 18.2513 37.1009 17.2394 36.3344 16.6047C34.7896 14.8682 32.9513 14 30.8197 14H16.9879C14.3772 14 13.0719 15.3053 13.0719 17.916L13 31.8197C13 33.113 13.6826 34.3226 15.0478 35.4483C15.9939 36.2147 16.7543 36.7237 17.3292 36.9752C17.9639 37.3584 18.7962 37.55 19.8261 37.55L33.586 37.5141C36.2326 37.5141 37.5559 36.1968 37.5559 33.5621ZM33.7298 15.7963C33.6579 15.7963 33.586 15.7963 33.5142 15.7963H19.6824C17.0717 15.7963 15.7664 17.1017 15.7664 19.7124L15.6945 33.616C15.6945 34.107 15.7484 34.5501 15.8562 34.9453C15.6167 34.8615 15.3472 34.6519 15.0478 34.3166C14.4131 33.622 14.0958 32.7897 14.0958 31.8197L14.0598 17.916C14.0598 15.9879 15.0359 15.0239 16.9879 15.0239L30.9634 14.988C32.4364 15.2275 33.3585 15.4969 33.7298 15.7963Z" fill="#004680"/>
</svg>
