<svg width="84" height="84" viewBox="0 0 84 84" fill="none" xmlns="http://www.w3.org/2000/svg">
<path d="M35.722 50.212C36.855 51.056 37.99 51.903 39.126 52.749C37.94 53.919 36.752 55.09 35.57 56.259C35.46 56.372 35.357 56.49 35.249 56.605L35.306 55.831C35.442 53.959 35.579 52.084 35.722 50.212ZM45.043 33.708C39.28 37.343 33.517 40.988 27.751 44.621C27.634 44.694 27.506 44.751 27.376 44.81C28.131 47.224 28.886 49.639 29.639 52.055C30.177 53.755 30.735 55.451 31.244 57.158C31.454 57.866 31.818 58.245 32.586 58.111C32.799 55.222 33.003 52.335 33.221 49.445C33.246 49.108 33.286 48.766 33.327 48.429C33.001 48.242 33.144 47.884 33.257 47.766C33.456 47.561 33.655 47.352 33.854 47.144C33.925 47.078 33.999 47.011 34.068 46.945C34.168 46.841 34.265 46.737 34.364 46.634C34.841 46.19 35.316 45.738 35.793 45.292C36.065 45.035 36.34 44.777 36.613 44.521C37.353 43.828 38.092 43.136 38.845 42.454C40.759 40.714 42.712 39.014 44.63 37.281C47.075 35.069 49.514 32.849 51.936 30.612C52.114 30.365 52.229 30.047 52.385 29.775C51.951 29.833 51.442 29.761 51.097 29.964C49.058 31.179 47.052 32.442 45.043 33.708ZM83.775 41.888C83.775 65.022 65.021 83.776 41.887 83.776C18.752 83.776 0 65.022 0 41.888C0 18.753 18.752 0 41.887 0C65.021 0 83.775 18.753 83.775 41.888ZM60.592 25.2C60.57 25.04 60.554 24.876 60.522 24.719C60.153 22.941 59.179 22.404 57.435 23.001C57.179 23.087 56.917 23.143 56.657 23.214C55.684 23.616 54.721 24.046 53.734 24.415C52.098 25.032 50.446 25.609 48.796 26.204C47.79 26.623 46.791 27.061 45.776 27.458C43.233 28.452 40.685 29.427 38.138 30.411C32.896 32.432 27.653 34.452 22.407 36.473C21.229 36.928 20.041 37.359 18.875 37.844C17.85 38.267 16.804 38.677 15.86 39.245C15.442 39.496 14.982 40.156 15.03 40.575C15.076 40.998 15.723 41.36 16.119 41.738C16.191 41.807 16.314 41.829 16.418 41.861C19.197 42.721 21.976 43.581 24.757 44.439C24.742 44.729 24.775 45.025 24.866 45.318L25.877 48.561L27.206 52.816C27.362 53.31 27.519 53.795 27.673 54.28C28.051 55.465 28.444 56.689 28.801 57.887C29.579 60.486 31.677 60.687 32.302 60.687C32.395 60.687 32.494 60.681 32.592 60.677C32.688 60.681 32.784 60.684 32.879 60.684C34.484 60.684 35.515 59.8 36.129 59.271C36.242 59.172 36.35 59.081 36.428 59.021C36.555 58.926 36.674 58.823 36.776 58.708C36.856 58.625 36.929 58.539 37.008 58.457C37.137 58.313 37.258 58.178 37.365 58.072C38.298 57.148 39.229 56.227 40.164 55.305L41.272 54.212C41.428 54.32 41.584 54.427 41.741 54.534C44.262 56.416 46.779 58.307 49.309 60.179C51.197 61.575 52.517 61.213 53.431 59.08C53.82 57.281 54.207 55.478 54.593 53.683C54.947 51.888 55.297 50.098 55.647 48.307C55.872 47.323 56.094 46.336 56.316 45.353C56.906 42.581 57.495 39.806 58.082 37.033C58.273 36.148 58.46 35.264 58.65 34.379C58.696 34.169 58.751 33.958 58.793 33.746C59.395 30.897 59.993 28.05 60.592 25.2Z" fill="#004680"/>
</svg>
